<svg width="48" height="30" viewBox="0 0 48 30" fill="none" xmlns="http://www.w3.org/2000/svg">
<rect x="1.5" y="1.5" width="16.7143" height="27" rx="3.5" fill="#F9F8FD" stroke="#C4C4C4" stroke-width="3"/>
<rect x="6" y="1" width="8" height="4" rx="2" fill="#C4C4C4"/>
<path d="M26 14C25.4477 14 25 14.4477 25 15C25 15.5523 25.4477 16 26 16V14ZM47.7071 15.7071C48.0976 15.3166 48.0976 14.6834 47.7071 14.2929L41.3431 7.92893C40.9526 7.53841 40.3195 7.53841 39.9289 7.92893C39.5384 8.31946 39.5384 8.95262 39.9289 9.34315L45.5858 15L39.9289 20.6569C39.5384 21.0474 39.5384 21.6805 39.9289 22.0711C40.3195 22.4616 40.9526 22.4616 41.3431 22.0711L47.7071 15.7071ZM26 16H47V14H26V16Z" fill="#C4C4C4"/>
</svg>
